<svg width="45" height="43" viewBox="0 0 45 43" fill="none" xmlns="http://www.w3.org/2000/svg">
<path d="M22.7535 42.1693C10.6224 42.1693 0.75354 32.7467 0.75354 21.1639C0.75354 9.58123 10.6224 0.158569 22.7535 0.158569C34.8847 0.158569 44.7535 9.58123 44.7535 21.1639C44.7535 32.7467 34.8847 42.1693 22.7535 42.1693ZM22.7535 2.78424C12.1385 2.78424 3.50354 11.0288 3.50354 21.1639C3.50354 31.299 12.1385 39.5436 22.7535 39.5436C33.3685 39.5436 42.0035 31.299 42.0035 21.1639C42.0035 11.0288 33.3685 2.78424 22.7535 2.78424Z" fill="#003377"/>
<path d="M20.691 28.1661C20.339 28.1661 19.987 28.0384 19.7193 27.781L13.761 22.0921L15.7062 20.2349L20.6928 24.9961L31.6378 14.5459L33.583 16.4031L21.6663 27.781C21.395 28.0384 21.043 28.1661 20.691 28.1661Z" fill="#003377"/>
</svg>
