<svg width="16" height="16" viewBox="0 0 16 16" fill="none" xmlns="http://www.w3.org/2000/svg">
<path d="M7.20981 2.69949C7.30671 2.74247 7.38925 2.77291 7.45385 2.81052C8.3331 3.26537 9.20884 3.72559 10.0917 4.17327C10.1618 4.20062 10.2212 4.25035 10.2604 4.31474C10.2984 4.38023 10.3147 4.45609 10.307 4.53142V9.46677C10.2885 9.72374 10.3452 9.98071 10.4703 10.2063C10.5939 10.4336 10.7809 10.6202 11.0086 10.7436C11.6995 11.1393 12.4621 10.7436 12.471 9.94848C12.4872 8.37979 12.471 6.80925 12.471 5.24056C12.4639 5.19079 12.4463 5.14314 12.419 5.10088C12.3921 5.05856 12.3558 5.02302 12.3131 4.99702C10.667 4.13388 9.01558 3.2767 7.35874 2.42551C7.31078 2.40975 7.26003 2.40425 7.20981 2.40939C7.16007 2.4146 7.11218 2.43115 7.06985 2.45774C6.1547 3.12032 5.24615 3.78826 4.34416 4.46158C4.30757 4.49199 4.27712 4.52906 4.25444 4.57082C4.23296 4.61324 4.22015 4.65952 4.21676 4.70692C4.20599 6.54243 4.15754 8.37799 4.21676 10.2099C4.27418 11.9362 5.17317 13.2345 6.571 14.1979C8.238 15.3458 10.0504 15.4013 11.9238 14.8641C11.965 14.8515 12.0045 14.8408 12.0458 14.8318C12.0687 14.8377 12.091 14.8462 12.1122 14.8569C11.9094 14.9697 11.7353 15.0772 11.5523 15.1667C10.0043 15.9355 8.24781 16.1812 6.54768 15.8669C4.84812 15.5515 3.29747 14.6929 2.12988 13.4207C1.37169 12.6072 0.793067 11.644 0.431425 10.5931C0.0697813 9.54234 -0.0668442 8.4276 0.0304121 7.32085C0.12765 6.2141 0.456616 5.14004 0.995993 4.16815C1.53537 3.19626 2.27318 2.34818 3.16165 1.67878C5.47822 -0.0510831 8.0765 -0.505933 10.7682 0.604328C13.7397 1.82024 15.5395 4.07657 15.9468 7.3017C16.1311 8.80706 15.8339 10.3319 15.098 11.6586C13.8563 13.958 11.3065 14.291 9.40801 13.2273C7.92936 12.3964 7.20981 11.0784 7.20443 9.39156V2.88931C7.20084 2.82669 7.20084 2.76391 7.20443 2.70128L7.20981 2.69949Z" fill="url(#paint0_linear_2852_10839)"/>
<defs>
<linearGradient id="paint0_linear_2852_10839" x1="7.99999" y1="6.35409e-06" x2="7.99999" y2="15.9999" gradientUnits="userSpaceOnUse">
<stop stop-color="#E80163" stop-opacity="0.9"/>
<stop offset="1" stop-color="#2155E9" stop-opacity="0.9"/>
</linearGradient>
</defs>
</svg>
