<svg xmlns="http://www.w3.org/2000/svg" viewBox="0 0 45.63 45.38"><defs><style>.cls-1{fill:none;stroke:#000;stroke-miterlimit:10;}</style></defs><g id="Layer_2" data-name="Layer 2"><g id="Layer_1-2" data-name="Layer 1"><path class="cls-1" d="M32.57.52C38.43.53,42,3.26,44,7.66A10.17,10.17,0,0,1,42.49,19.1c-1.67,2-3.53,3.76-5.34,5.6-.46.47-.93,1.18-1.74.81-.62-.29-.58-1-.63-1.57-.31-3-.76-5.87,2.26-8.27,2.43-1.94,2.14-5.07.14-7.16A5,5,0,0,0,30,8.29c-3.44,3.15-6.75,6.45-9.89,9.9-2.14,2.35-1.69,5.16,1.1,7.54,1.41,1.21,1.68,2.1.25,3.31s-2.19,3.31-4.57,1.26A11.49,11.49,0,0,1,16,13.17c3-3.06,6-6.08,9.07-9C27.33,2,29.88.29,32.57.52Z"/><path class="cls-1" d="M12.86,44.85c-5.73,0-9-2.73-11.11-6.84A10,10,0,0,1,3,26.58c1.69-2.06,3.61-3.93,5.5-5.82.5-.5,1.18-1.24,2-.36s.5,6.54-.38,7.56a19.3,19.3,0,0,0-2.4,3,4.73,4.73,0,0,0,1.08,6.2c1.91,1.74,4.28,2.08,6.26.41A86.5,86.5,0,0,0,26,26.65c1.75-2.09,1.14-4.92-1.25-6.82-1.29-1-2.18-1.79-.53-3.16,1.41-1.16,2.4-3.43,4.86-1.33a11.25,11.25,0,0,1,1.35,16C27.1,35,23.48,38.42,19.91,41.84,17.76,43.9,15.16,45.07,12.86,44.85Z"/></g></g></svg>