<svg width="38" height="38" viewBox="0 0 38 38" fill="none" xmlns="http://www.w3.org/2000/svg">
<path d="M33.7668 17.0833C33.9103 16.6243 33.9888 16.1474 34.0001 15.6666V8.99996C34.0001 4.24996 26.8334 0.666626 17.3334 0.666626C7.83342 0.666626 0.666748 4.24996 0.666748 8.99996V15.6666C0.758622 16.777 1.13508 17.8449 1.75982 18.7674C2.38455 19.6899 3.23648 20.4359 4.23342 20.9333C4.08039 21.3843 4.00158 21.8571 4.00008 22.3333V29C4.00008 33.75 11.1667 37.3333 20.6667 37.3333C30.1667 37.3333 37.3334 33.75 37.3334 29V22.3333C37.2435 21.2245 36.8677 20.158 36.2426 19.2378C35.6175 18.3177 34.7644 17.5753 33.7668 17.0833ZM17.3334 24C23.7501 24 29.1001 22.3333 31.9001 19.8333C33.2334 20.6333 34.0001 21.5 34.0001 22.3333C34.0001 24.3666 28.8001 27.3333 20.6667 27.3333C12.5334 27.3333 7.48342 24.45 7.33342 22.4166C10.551 23.5151 13.9339 24.0507 17.3334 24ZM17.3334 3.99996C25.4667 3.99996 30.6667 6.96663 30.6667 8.99996C30.6667 11.0333 25.4667 14 17.3334 14C9.20008 14 4.00008 11.0333 4.00008 8.99996C4.00008 6.96663 9.20008 3.99996 17.3334 3.99996ZM4.00008 14.1C8.05372 16.4059 12.6738 17.5263 17.3334 17.3333C21.993 17.5263 26.6131 16.4059 30.6667 14.1V15.6666C30.6667 17.7 25.4667 20.6666 17.3334 20.6666C9.20008 20.6666 4.00008 17.7 4.00008 15.6666V14.1ZM20.6667 34C12.5334 34 7.33342 31.0333 7.33342 29V27.4333C11.387 29.7392 16.0071 30.8596 20.6667 30.6666C25.3264 30.8596 29.9464 29.7392 34.0001 27.4333V29C34.0001 31.0333 28.8001 34 20.6667 34Z" fill="#616161"/>
</svg>
