<svg width="42" height="41" viewBox="0 0 42 41" fill="none" xmlns="http://www.w3.org/2000/svg">
<g filter="url(#filter0_d)">
<path d="M10 29.105C10.0764 28.9517 10.1978 28.8254 10.348 28.7431C10.4982 28.6608 10.6699 28.6263 10.8403 28.6443H23.9011C24.5128 28.6443 24.7634 28.8986 24.7634 29.5104C24.7634 29.8789 24.7634 30.2769 24.7634 30.6602C24.7634 30.8997 24.6787 30.9845 24.4391 30.9955H10.3685C10.3006 31.0059 10.2311 30.9989 10.1666 30.975C10.1022 30.9511 10.0448 30.9113 10 30.8592L10 29.105Z" fill="#2E2E2E"/>
<path d="M11.9091 19.2503V11.4743C11.8905 11.3475 11.9018 11.2182 11.9421 11.0966C11.9824 10.975 12.0505 10.8645 12.1411 10.7739C12.2317 10.6833 12.3422 10.6152 12.4638 10.5749C12.5854 10.5346 12.7147 10.5233 12.8415 10.5419H21.889C22.0181 10.5234 22.1498 10.5353 22.2736 10.5765C22.3974 10.6178 22.5099 10.6873 22.6022 10.7795C22.6944 10.8718 22.7639 10.9843 22.8052 11.1081C22.8464 11.2319 22.8583 11.3636 22.8398 11.4927V27.078C22.8398 27.3986 22.8398 27.4023 22.5155 27.4023H12.2371C11.9091 27.4023 11.9091 27.4023 11.9091 27.0632V19.2503ZM17.3708 18.3143H20.9418C21.0403 18.33 21.141 18.3225 21.236 18.2925C21.3311 18.2625 21.4178 18.2107 21.4894 18.1413C21.5609 18.0719 21.6153 17.9868 21.6482 17.8927C21.6811 17.7986 21.6916 17.6982 21.6789 17.5993V12.731C21.693 12.6309 21.6837 12.5289 21.6517 12.433C21.6196 12.3372 21.5657 12.2501 21.4942 12.1786C21.4228 12.1071 21.3357 12.0532 21.2398 12.0212C21.1439 11.9891 21.0419 11.9798 20.9418 11.9939H13.8255C13.7252 11.979 13.6229 11.9878 13.5266 12.0195C13.4304 12.0513 13.343 12.1052 13.2713 12.1768C13.1996 12.2485 13.1458 12.3359 13.114 12.4322C13.0822 12.5284 13.0735 12.6308 13.0884 12.731V17.5883C13.0709 17.6889 13.078 17.7923 13.1088 17.8897C13.1397 17.9871 13.1935 18.0757 13.2658 18.1479C13.338 18.2202 13.4266 18.274 13.524 18.3049C13.6214 18.3358 13.7248 18.3428 13.8255 18.3253L17.3708 18.3143Z" fill="#2E2E2E"/>
<path d="M28.8909 22.4306V18.421C28.8909 18.1077 28.8909 18.104 29.2078 18.1556C29.4759 18.2035 29.7504 18.2035 30.0186 18.1556C30.2102 18.1224 30.2692 18.1888 30.2655 18.3694C30.2655 19.2133 30.2655 20.0572 30.2655 20.8975C30.2655 22.664 30.2655 24.4268 30.2655 26.186C30.2711 26.4153 30.2563 26.6447 30.2213 26.8714C30.1403 27.29 29.9149 27.6669 29.5845 27.9363C29.2541 28.2058 28.8396 28.3508 28.4133 28.3459C27.987 28.3411 27.5759 28.1868 27.2516 27.9099C26.9274 27.6331 26.7106 27.2512 26.6391 26.8309C26.6188 26.6782 26.6114 26.5241 26.617 26.3702V22.239C26.6243 22.072 26.6031 21.905 26.5544 21.7451C26.502 21.6003 26.4056 21.4755 26.2787 21.3882C26.1518 21.301 26.0008 21.2557 25.8468 21.2587C25.3456 21.2587 24.8444 21.2587 24.3432 21.2587C24.1552 21.2587 24.0815 21.1997 24.0889 21.0044C24.0889 20.6985 24.0889 20.3926 24.0889 20.0867C24.0889 19.9909 24.0889 19.8988 24.2252 19.8988C24.889 19.8722 25.5538 19.8894 26.2153 19.9504C26.6776 20.0216 27.1017 20.2486 27.4173 20.5938C27.733 20.9389 27.9213 21.3815 27.9511 21.8483C28.0174 22.7402 27.9511 23.632 27.9769 24.5202C27.9769 25.1909 27.9769 25.858 27.9769 26.5287C27.9743 26.6027 27.9904 26.6762 28.0236 26.7425C28.0568 26.8087 28.1061 26.8655 28.167 26.9077C28.2279 26.9499 28.2985 26.9761 28.3721 26.9839C28.4458 26.9918 28.5203 26.9809 28.5887 26.9525C28.6664 26.9307 28.7357 26.886 28.7877 26.8242C28.8396 26.7624 28.8717 26.6864 28.8798 26.6061C28.8853 26.5091 28.8853 26.4119 28.8798 26.3149L28.8909 22.4306Z" fill="#2E2E2E"/>
<path d="M29.639 16.9173C29.2887 16.9173 28.9463 16.8133 28.6551 16.6184C28.364 16.4235 28.1373 16.1466 28.0037 15.8227C27.8701 15.4988 27.8358 15.1426 27.9049 14.7992C27.9741 14.4557 28.1437 14.1405 28.3922 13.8936C28.6407 13.6466 28.9569 13.4791 29.3008 13.412C29.6446 13.345 30.0007 13.3817 30.3237 13.5172C30.6467 13.6528 30.9222 13.8813 31.1153 14.1736C31.3083 14.466 31.4102 14.8091 31.408 15.1594C31.4085 15.3913 31.363 15.6211 31.2741 15.8353C31.1853 16.0495 31.0548 16.244 30.8903 16.4075C30.7258 16.5709 30.5305 16.7002 30.3157 16.7877C30.101 16.8752 29.871 16.9193 29.639 16.9173ZM30.2692 15.1594C30.2718 15.0777 30.2576 14.9964 30.2276 14.9204C30.1976 14.8444 30.1525 14.7753 30.0948 14.7173C30.0372 14.6593 29.9684 14.6138 29.8926 14.5833C29.8167 14.5529 29.7355 14.5382 29.6538 14.5403C29.571 14.5373 29.4884 14.5511 29.4111 14.581C29.3338 14.6108 29.2634 14.6561 29.2042 14.714C29.1449 14.7719 29.098 14.8412 29.0663 14.9178C29.0346 14.9944 29.0189 15.0766 29.0199 15.1594C29.0199 15.3251 29.0857 15.484 29.2029 15.6011C29.32 15.7183 29.4789 15.7841 29.6446 15.7841C29.8102 15.7841 29.9691 15.7183 30.0863 15.6011C30.2034 15.484 30.2692 15.3251 30.2692 15.1594Z" fill="#2E2E2E"/>
<path d="M26.6615 10C26.8403 10.0032 27.0119 10.0713 27.1443 10.1916L29.057 11.9974C29.0938 12.0306 29.1454 12.0638 29.138 12.1154C29.1307 12.167 29.0533 12.178 29.0017 12.1891C28.6403 12.2656 28.2965 12.4094 27.9882 12.6129C27.9709 12.6319 27.9499 12.6471 27.9264 12.6575C27.9029 12.6679 27.8775 12.6732 27.8519 12.6732C27.8262 12.6732 27.8008 12.6679 27.7773 12.6575C27.7538 12.6471 27.7328 12.6319 27.7155 12.6129L26.2156 11.1719C26.1088 11.0791 26.0358 10.9536 26.0078 10.815C25.9798 10.6763 25.9984 10.5323 26.0608 10.4054C26.113 10.2884 26.197 10.1885 26.3032 10.1168C26.4094 10.0452 26.5335 10.0047 26.6615 10V10Z" fill="#2E2E2E"/>
<path d="M17.3704 17.0462C16.4454 17.0462 15.5277 17.0462 14.5953 17.0462C14.3889 17.0462 14.33 16.9761 14.3337 16.7808C14.3337 15.6752 14.3337 14.5954 14.3337 13.5009C14.3337 13.3166 14.3889 13.2466 14.5843 13.2466C16.4417 13.2466 18.3003 13.2466 20.1602 13.2466C20.3481 13.2466 20.4034 13.3166 20.3997 13.4935C20.3997 14.5991 20.3997 15.7047 20.3997 16.8103C20.3997 16.9946 20.3481 17.0683 20.1491 17.0646C19.213 17.0388 18.3028 17.0462 17.3704 17.0462Z" fill="#2E2E2E"/>
</g>
<defs>
<filter id="filter0_d" x="0" y="0" width="41.4082" height="41" filterUnits="userSpaceOnUse" color-interpolation-filters="sRGB">
<feFlood flood-opacity="0" result="BackgroundImageFix"/>
<feColorMatrix in="SourceAlpha" type="matrix" values="0 0 0 0 0 0 0 0 0 0 0 0 0 0 0 0 0 0 127 0" result="hardAlpha"/>
<feOffset/>
<feGaussianBlur stdDeviation="5"/>
<feComposite in2="hardAlpha" operator="out"/>
<feColorMatrix type="matrix" values="0 0 0 0 0.301961 0 0 0 0 0.0745098 0 0 0 0 0.482353 0 0 0 1 0"/>
<feBlend mode="normal" in2="BackgroundImageFix" result="effect1_dropShadow"/>
<feBlend mode="normal" in="SourceGraphic" in2="effect1_dropShadow" result="shape"/>
</filter>
</defs>
</svg>
