<svg width="23" height="21" viewBox="0 0 23 21" fill="none" xmlns="http://www.w3.org/2000/svg">
<path d="M9.67518 20.169C9.00991 19.9829 8.64286 19.5796 8.57404 18.9488C8.53389 18.5662 8.45933 18.1836 8.41345 17.801C8.39051 17.6304 8.33316 17.5218 8.13243 17.4649C7.85141 17.3874 7.58759 17.2736 7.32377 17.1599C7.1976 17.1082 7.10584 17.1082 6.99687 17.1857C6.62982 17.4546 6.25704 17.7131 5.87852 17.9716C5.17883 18.4524 4.47915 18.4111 3.85975 17.8579C3.41814 17.4597 2.97654 17.0668 2.54067 16.6687C1.97289 16.1516 1.93274 15.495 2.42596 14.9211C2.72419 14.5747 3.01668 14.2231 3.32065 13.8819C3.40667 13.7836 3.41814 13.7009 3.35506 13.5872C3.22888 13.3442 3.10271 13.096 3.00521 12.8375C2.94786 12.6875 2.8561 12.6203 2.68978 12.5996C2.2195 12.5479 1.75495 12.4911 1.28467 12.4394C0.521898 12.367 0.00573514 11.8551 0 11.1571C0 10.5522 0 9.9421 0 9.33717C0.00573514 8.67537 0.527633 8.15834 1.256 8.08078C1.73201 8.02908 2.20803 7.97221 2.68405 7.92051C2.85037 7.90499 2.94786 7.84812 3.00521 7.69301C3.10271 7.43967 3.22315 7.18632 3.34932 6.94332C3.41241 6.81923 3.40667 6.7365 3.30918 6.6331C3.00521 6.29703 2.71846 5.95578 2.42596 5.60937C1.92127 5.00962 1.96715 4.3685 2.55787 3.83595C3.00521 3.4275 3.45829 3.02421 3.91137 2.62093C4.46194 2.12975 5.17883 2.08322 5.79823 2.50201C6.20542 2.77604 6.60688 3.06041 7.00261 3.34477C7.10584 3.42233 7.19187 3.4275 7.3123 3.37063C7.59333 3.24137 7.88008 3.12762 8.18405 3.0449C8.34463 3.00353 8.39625 2.91047 8.41345 2.78121C8.4708 2.35207 8.53389 1.92294 8.59124 1.49897C8.67727 0.811319 9.24505 0.345991 10.0078 0.34082C10.6788 0.34082 11.3556 0.34082 12.0266 0.34082C12.7607 0.345991 13.3399 0.811319 13.426 1.46795C13.4833 1.90226 13.5464 2.33656 13.6038 2.77087C13.621 2.90013 13.6726 2.99319 13.8332 3.03973C14.1314 3.12245 14.4239 3.23103 14.7049 3.36546C14.8311 3.4275 14.9228 3.41199 15.0318 3.32926C15.4046 3.06041 15.7831 2.79672 16.1674 2.53303C16.8326 2.07288 17.5495 2.11424 18.1403 2.64161C18.5933 3.0449 19.0407 3.45335 19.488 3.86181C20.0386 4.36333 20.0902 5.00962 19.6199 5.57835C19.3274 5.92993 19.0292 6.27634 18.7195 6.61759C18.6048 6.74167 18.6048 6.83991 18.6851 6.97951C18.8113 7.20183 18.926 7.4345 19.0063 7.67233C19.0693 7.85329 19.1898 7.91016 19.379 7.92568C19.8034 7.96704 20.2278 8.03425 20.6522 8.07044C21.3519 8.13249 21.7993 8.46339 22.0057 9.06314C22.0057 9.86454 22.0057 10.6608 22.0057 11.4622C21.7993 12.0619 21.3519 12.3928 20.6522 12.4549C20.2278 12.4911 19.8034 12.5531 19.379 12.5996C19.1898 12.6203 19.0693 12.672 19.0063 12.853C18.9202 13.096 18.8055 13.3338 18.6736 13.5665C18.5991 13.7061 18.6163 13.794 18.7195 13.9129C19.0235 14.249 19.316 14.5902 19.6027 14.9315C20.0902 15.5157 20.0443 16.1568 19.4765 16.679C19.0349 17.0823 18.5876 17.4804 18.1403 17.8837C17.5438 18.4214 16.8154 18.4576 16.1559 17.9871C15.7774 17.7183 15.3989 17.4597 15.0203 17.1909C14.9171 17.1185 14.8311 17.1082 14.7106 17.1599C14.4468 17.2736 14.1773 17.3874 13.902 17.4649C13.6955 17.5218 13.621 17.6252 13.598 17.8062C13.5521 18.1888 13.4776 18.5714 13.4374 18.954C13.3743 19.5847 13.0016 19.9829 12.3363 20.1742C11.4473 20.169 10.5641 20.169 9.67518 20.169ZM3.0683 15.7587C3.05683 15.8828 3.13712 15.981 3.23462 16.0689C3.66476 16.4567 4.09489 16.8445 4.52503 17.2322C4.79458 17.4753 4.98957 17.4908 5.29354 17.2788C5.77529 16.9427 6.25704 16.6066 6.73306 16.2706C6.91658 16.1413 7.11158 16.0896 7.32951 16.193C7.8342 16.4412 8.36184 16.6325 8.91241 16.7876C9.14755 16.8548 9.27372 16.9996 9.3024 17.2219C9.38269 17.7958 9.46298 18.3697 9.55475 18.9436C9.59489 19.2073 9.73827 19.3107 10.0365 19.3107C10.6788 19.3159 11.3269 19.3159 11.9692 19.3107C12.2847 19.3107 12.4166 19.2073 12.4567 18.9333C12.5428 18.3801 12.6345 17.8217 12.6976 17.2684C12.732 16.9892 12.8869 16.8393 13.1736 16.7669C13.6668 16.6325 14.1486 16.4619 14.5959 16.2292C14.8425 16.0999 15.0662 16.1206 15.2899 16.2809C15.7716 16.6273 16.2591 16.9634 16.7466 17.2995C17.0047 17.4804 17.2226 17.4649 17.452 17.2633C17.8879 16.8703 18.3238 16.4774 18.7596 16.0844C19.0063 15.8621 19.0177 15.676 18.7998 15.4175C18.4213 14.9728 18.0428 14.5282 17.6585 14.0887C17.5151 13.9232 17.4807 13.7526 17.5897 13.5665C17.865 13.1115 18.0772 12.6358 18.2492 12.1395C18.3238 11.9275 18.4844 11.8189 18.7367 11.7931C19.3733 11.7259 20.0099 11.6483 20.6465 11.5656C20.9275 11.5294 21.0422 11.4001 21.048 11.1468C21.0537 10.5522 21.0537 9.95761 21.048 9.36819C21.048 9.11485 20.9275 8.99076 20.6408 8.95457C20.0156 8.87701 19.3962 8.79429 18.7711 8.73224C18.4844 8.70122 18.318 8.58231 18.232 8.33413C18.0772 7.8688 17.8764 7.42415 17.6126 7.00019C17.4807 6.78821 17.5037 6.60207 17.6757 6.41077C18.06 5.97647 18.4327 5.53699 18.8055 5.09751C19.0177 4.84417 19.0063 4.65803 18.7539 4.43571C18.3295 4.05311 17.9051 3.6705 17.4807 3.2879C17.2226 3.05524 17.0162 3.03973 16.7294 3.24654C16.2477 3.58261 15.7659 3.91868 15.2899 4.25475C15.0892 4.39435 14.8884 4.43571 14.6533 4.32196C14.1715 4.08413 13.6611 3.89283 13.1335 3.75323C12.8811 3.68602 12.7435 3.54125 12.7091 3.29824C12.6345 2.72951 12.5542 2.16077 12.4625 1.59204C12.4166 1.31284 12.2847 1.21977 11.9692 1.2146C11.3269 1.2146 10.6788 1.20943 10.0365 1.2146C9.73827 1.2146 9.60063 1.32318 9.56048 1.58687C9.47445 2.14009 9.38269 2.69848 9.3196 3.25171C9.28519 3.54125 9.12461 3.69636 8.83212 3.76874C8.33316 3.89283 7.86288 4.07896 7.4098 4.30128C7.16319 4.4202 6.95673 4.40469 6.73879 4.24958C6.25704 3.90317 5.76955 3.5671 5.28206 3.23103C5.01251 3.0449 4.80031 3.05524 4.55944 3.26722C4.1293 3.65499 3.69917 4.04277 3.26903 4.43054C3.01095 4.66321 2.99948 4.84417 3.22315 5.10785C3.59593 5.54216 3.96872 5.97647 4.3415 6.4056C4.50209 6.58656 4.54223 6.77269 4.41606 6.97951C4.14077 7.41898 3.94004 7.88948 3.77372 8.37032C3.69917 8.58231 3.54432 8.70122 3.29197 8.72707C2.65537 8.79946 2.01877 8.87184 1.38217 8.95457C1.08968 8.99076 0.974974 9.11485 0.969239 9.3837C0.963504 9.97312 0.963504 10.5574 0.969239 11.1468C0.969239 11.4156 1.08394 11.5346 1.38217 11.5707C1.99009 11.6483 2.59802 11.731 3.21168 11.7827C3.55005 11.8138 3.72211 11.9689 3.80813 12.2481C3.94578 12.6824 4.14077 13.1012 4.38738 13.4941C4.5365 13.7268 4.50782 13.9284 4.3243 14.1352C3.94578 14.5644 3.57873 14.9987 3.20594 15.433C3.11992 15.526 3.05683 15.6243 3.0683 15.7587Z" fill="#6338BC"/>
<path d="M6.40039 10.2729C6.40039 7.98767 8.46504 6.11601 10.9942 6.11084C13.5292 6.11084 15.6053 7.97215 15.611 10.2523C15.611 12.5375 13.5464 14.4092 11.0172 14.4144C8.48225 14.4144 6.40613 12.5531 6.40039 10.2729ZM7.36963 10.2523C7.36963 12.0619 8.98694 13.5406 10.9828 13.5458C13.0015 13.5509 14.6418 12.0877 14.6475 10.2781C14.6475 8.4685 13.0302 6.98979 11.0344 6.98462C9.00988 6.97945 7.36963 8.44265 7.36963 10.2523Z" fill="#6338BC"/>
</svg>
